<svg xmlns="http://www.w3.org/2000/svg" x="0px" y="0px" viewBox="0 0 65 65" >
    <path fill="black" d="M48.1,35.4l-7.7-2.5c0-0.1,0-0.3,0-0.4s0-0.3,0-0.4l7.7-2.5l-0.3-1l16.1-5.2l-0.6-1.9l-16.1,5.2l-0.3-1 l-7.7,2.5c-0.2-0.2-0.3-0.5-0.5-0.7l4.7-6.5l-0.8-0.6l10-13.7L51,5.6L41,19.3l-0.8-0.6l-4.7,6.5c-0.3-0.1-0.5-0.2-0.8-0.3v-8h-1V0 h-2v16.9h-1v8c-0.3,0.1-0.5,0.2-0.8,0.3l-4.7-6.5l-0.8,0.6l-10-13.7l-1.6,1.2l10,13.7l-0.8,0.6l4.7,6.5c-0.2,0.2-0.3,0.4-0.5,0.7 l-7.7-2.5l-0.3,1L2.1,21.5l-0.6,1.9l16.1,5.2l-0.3,1l7.7,2.5c0,0.1,0,0.3,0,0.4s0,0.3,0,0.4l-7.7,2.5l0.3,1L1.5,41.6l0.6,1.9 l16.1-5.2l0.3,1l7.7-2.5c0.2,0.2,0.3,0.5,0.5,0.7l-4.7,6.5l0.8,0.6l-10,13.7l1.6,1.2l10-13.7l0.8,0.6l4.7-6.5 c0.3,0.1,0.5,0.2,0.8,0.3v8h1V65h2V48.1h1v-8c0.3-0.1,0.5-0.2,0.8-0.3l4.7,6.5l0.8-0.6l10,13.7l1.6-1.2l-10-13.7l0.8-0.6l-4.7-6.5 c0.2-0.2,0.3-0.4,0.5-0.7l7.7,2.5l0.3-1l16.1,5.2l0.6-1.9l-16.1-5.2L48.1,35.4z" />
</svg>